<?xml version="1.0" encoding="UTF-8" standalone="no"?>
<svg
   xmlns:dc="http://purl.org/dc/elements/1.1/"
   xmlns:cc="http://creativecommons.org/ns#"
   xmlns:rdf="http://www.w3.org/1999/02/22-rdf-syntax-ns#"
   xmlns:svg="http://www.w3.org/2000/svg"
   xmlns="http://www.w3.org/2000/svg"
   version="1.1"
   id="svg2"
   xml:space="preserve"
   width="32"
   height="32"
   viewBox="0 0 200 200"><metadata
     id="metadata8"><rdf:RDF><cc:Work
         rdf:about=""><dc:format>image/svg+xml</dc:format><dc:type
           rdf:resource="http://purl.org/dc/dcmitype/StillImage" /><dc:title></dc:title></cc:Work></rdf:RDF></metadata><defs
     id="defs6" /><g
     id="g10"
     transform="matrix(1.3333333,0,0,-1.3333333,-3.9999999,244.20024)"><g
       id="g12"
       transform="translate(47.000002,10.150183)"><path
         d="M 31,142.31711 V 122.227"
         style="fill:none;stroke:#aaaaaa;stroke-width:4.68750012;stroke-linecap:square;stroke-linejoin:round;stroke-miterlimit:10;stroke-dasharray:none;stroke-opacity:1"
         id="path22" /><path
         d="m 53.308653,106.88488 c 24.402356,8.72084 25.811903,-3.00122 25.811903,-8.752506 0,-5.751291 -0.760542,-17.393958 -13.529985,-12.567398"
         style="fill:none;stroke:#aaaaaa;stroke-width:4.6875;stroke-linecap:square;stroke-linejoin:round;stroke-miterlimit:10;stroke-dasharray:none;stroke-opacity:1"
         id="path32" /><path
         d="M 31,79.82 V 63.455133"
         style="fill:none;stroke:#aaaaaa;stroke-width:4.68750012;stroke-linecap:square;stroke-linejoin:round;stroke-miterlimit:10;stroke-dasharray:none;stroke-opacity:1"
         id="path46" /><path
         d="m 42.25,150.5 c 0,-6.21125 -5.03875,-11.25 -11.25,-11.25 -6.21125,0 -11.25,5.03875 -11.25,11.25 0,6.21125 5.03875,11.25 11.25,11.25 6.21125,0 11.25,-5.03875 11.25,-11.25"
         style="fill:#aaaaaa;fill-opacity:1;fill-rule:nonzero;stroke:none;stroke-width:1"
         id="path14" /><path
         d="M 58,98 C 58,88.059 45.91,80 31,80 16.09,80 4,88.059 4,98 c 0,9.941 12.09,18 27,18 14.91,0 27,-8.059 27,-18"
         style="fill:#dddddd;fill-opacity:1;fill-rule:nonzero;stroke:#aaaaaa;stroke-width:2;stroke-linecap:butt;stroke-linejoin:round;stroke-miterlimit:10;stroke-dasharray:none;stroke-opacity:1"
         id="path16" /><path
         d="m 37.004967,127.34393 -6.004968,-16.49985 -6.00497,16.49985 z"
         style="fill:#aaaaaa;fill-opacity:1;fill-rule:nonzero;stroke:#aaaaaa;stroke-width:1;stroke-linecap:butt;stroke-linejoin:round;stroke-miterlimit:10;stroke-dasharray:none;stroke-opacity:1"
         id="path24" /><path
         d="M 63.278135,79.849399 50.613469,92.015104 68.130706,90.821954 Z"
         style="fill:#aaaaaa;fill-opacity:1;fill-rule:nonzero;stroke:#aaaaaa;stroke-width:1;stroke-linecap:butt;stroke-linejoin:round;stroke-miterlimit:10;stroke-dasharray:none;stroke-opacity:1"
         id="path34" /><path
         d="m 39.975001,45.499998 c 0,-4.958046 -4.016954,-8.975 -8.975001,-8.975 -4.958046,0 -8.975,4.016954 -8.975,8.975 0,4.958047 4.016954,8.975001 8.975,8.975001 4.958047,0 8.975001,-4.016954 8.975001,-8.975001"
         style="fill:#aaaaaa;fill-opacity:1;fill-rule:nonzero;stroke:#aaaaaa;stroke-width:1.79999995;stroke-linecap:butt;stroke-linejoin:round;stroke-miterlimit:10;stroke-dasharray:none;stroke-opacity:1"
         id="path42" /><path
         d="m 44.974999,45.499997 c 0,-7.71674 -6.258259,-13.974999 -13.974999,-13.974999 -7.716742,0 -13.975001,6.258259 -13.975001,13.974999 0,7.716741 6.258259,13.975 13.975001,13.975 7.71674,0 13.974999,-6.258259 13.974999,-13.975"
         style="fill:none;stroke:#aaaaaa;stroke-width:1.80000019;stroke-linecap:butt;stroke-linejoin:round;stroke-miterlimit:10;stroke-dasharray:none;stroke-opacity:1"
         id="path44" /><path
         d="M 37.004967,68.688451 30.999999,52.188602 24.995029,68.688451 Z"
         style="fill:#aaaaaa;fill-opacity:1;fill-rule:nonzero;stroke:#aaaaaa;stroke-width:1;stroke-linecap:butt;stroke-linejoin:round;stroke-miterlimit:10;stroke-dasharray:none;stroke-opacity:1"
         id="path48" /></g></g></svg>