<?xml version="1.0" encoding="UTF-8" standalone="no"?>
<svg
   xmlns:dc="http://purl.org/dc/elements/1.1/"
   xmlns:cc="http://creativecommons.org/ns#"
   xmlns:rdf="http://www.w3.org/1999/02/22-rdf-syntax-ns#"
   xmlns:svg="http://www.w3.org/2000/svg"
   xmlns="http://www.w3.org/2000/svg"
   xmlns:sodipodi="http://sodipodi.sourceforge.net/DTD/sodipodi-0.dtd"
   xmlns:inkscape="http://www.inkscape.org/namespaces/inkscape"
   inkscape:version="1.0 (4035a4fb49, 2020-05-01)"
   sodipodi:docname="crud-icon.grey.svg"
   viewBox="0 0 200 200"
   height="32"
   width="32"
   xml:space="preserve"
   id="svg2"
   version="1.1"><sodipodi:namedview
     inkscape:current-layer="g12"
     inkscape:window-maximized="1"
     inkscape:window-y="0"
     inkscape:window-x="0"
     inkscape:cy="16"
     inkscape:cx="16"
     inkscape:zoom="21.25"
     inkscape:snap-page="true"
     showgrid="false"
     id="namedview17"
     inkscape:window-height="1053"
     inkscape:window-width="1920"
     inkscape:pageshadow="2"
     inkscape:pageopacity="0"
     guidetolerance="10"
     gridtolerance="10"
     objecttolerance="10"
     borderopacity="1"
     bordercolor="#666666"
     pagecolor="#ffffff" /><metadata
     id="metadata8"><rdf:RDF><cc:Work
         rdf:about=""><dc:format>image/svg+xml</dc:format><dc:type
           rdf:resource="http://purl.org/dc/dcmitype/StillImage" /><dc:title /></cc:Work></rdf:RDF></metadata><defs
     id="defs6" /><g
     style="stroke-width:0.879928"
     transform="matrix(1.5152747,0,0,-1.5152747,-25.811058,261.6609)"
     id="g10"><g
       style="stroke-width:0.879928"
       transform="translate(47.000002,10.150183)"
       id="g12"><path
         sodipodi:nodetypes="cc"
         id="path22"
         style="fill:none;stroke:#aaaaaa;stroke-width:4.12466;stroke-linecap:square;stroke-linejoin:round;stroke-miterlimit:10;stroke-dasharray:none;stroke-opacity:1"
         d="M 31,134.35893 31,122.227" /><path
         id="path32"
         style="fill:none;stroke:#aaaaaa;stroke-width:4.12466;stroke-linecap:square;stroke-linejoin:round;stroke-miterlimit:10;stroke-dasharray:none;stroke-opacity:1"
         d="m 63.596052,106.88488 c 24.402356,8.72084 25.811903,-3.00122 25.811903,-8.752506 0,-5.751291 -0.760542,-17.393958 -13.529985,-12.567398" /><path
         sodipodi:nodetypes="cc"
         id="path46"
         style="fill:none;stroke:#aaaaaa;stroke-width:4.12466;stroke-linecap:square;stroke-linejoin:round;stroke-miterlimit:10;stroke-dasharray:none;stroke-opacity:1"
         d="M 31,77.296676 V 66.366661" /><path
         id="path14"
         style="fill:#aaaaaa;fill-opacity:1;fill-rule:nonzero;stroke:none;stroke-width:0.879928"
         d="m 45.549732,147.78257 c 0,-8.03307 -6.516663,-14.54973 -14.549732,-14.54973 -8.033068,0 -14.549731,6.51666 -14.549731,14.54973 0,8.03307 6.516663,14.54973 14.549731,14.54973 8.033069,0 14.549732,-6.51666 14.549732,-14.54973" /><path
         id="path16"
         style="fill:#dddddd;fill-opacity:1;fill-rule:nonzero;stroke:#aaaaaa;stroke-width:1.75986;stroke-linecap:butt;stroke-linejoin:round;stroke-miterlimit:10;stroke-dasharray:none;stroke-opacity:1"
         d="m 64.211262,97.805903 c 0,-12.120697 -14.871264,-21.946739 -33.211261,-21.946739 -18.339996,0 -33.2112605,9.826042 -33.2112605,21.946739 0,12.120697 14.8712645,21.946747 33.2112605,21.946747 18.339997,0 33.211261,-9.82605 33.211261,-21.946747" /><path
         id="path24"
         style="fill:#aaaaaa;fill-opacity:1;fill-rule:nonzero;stroke:#aaaaaa;stroke-width:0.879928;stroke-linecap:butt;stroke-linejoin:round;stroke-miterlimit:10;stroke-dasharray:none;stroke-opacity:1"
         d="m 37.004967,127.34393 -6.004968,-16.49985 -6.00497,16.49985 z" /><path
         id="path34"
         style="fill:#aaaaaa;fill-opacity:1;fill-rule:nonzero;stroke:#aaaaaa;stroke-width:0.879928;stroke-linecap:butt;stroke-linejoin:round;stroke-miterlimit:10;stroke-dasharray:none;stroke-opacity:1"
         d="M 73.565534,79.849399 60.900868,92.015104 78.418105,90.821954 Z" /><path
         id="path42"
         style="fill:#aaaaaa;fill-opacity:1;fill-rule:nonzero;stroke:#aaaaaa;stroke-width:1.58387;stroke-linecap:butt;stroke-linejoin:round;stroke-miterlimit:10;stroke-dasharray:none;stroke-opacity:1"
         d="m 42.094151,45.5 c 0,-6.128724 -4.965424,-11.094148 -11.094149,-11.094148 -6.128724,0 -11.094149,4.965424 -11.094149,11.094148 0,6.128725 4.965425,11.094149 11.094149,11.094149 6.128725,0 11.094149,-4.965424 11.094149,-11.094149" /><path
         id="path44"
         style="fill:none;stroke:#aaaaaa;stroke-width:1.58387;stroke-linecap:butt;stroke-linejoin:round;stroke-miterlimit:10;stroke-dasharray:none;stroke-opacity:1"
         d="m 48.274733,45.499999 c 0,-9.538792 -7.73594,-17.274731 -17.274732,-17.274731 -9.538794,0 -17.274733,7.735939 -17.274733,17.274731 0,9.538793 7.735939,17.274732 17.274733,17.274732 9.538792,0 17.274732,-7.735939 17.274732,-17.274732" /><path
         id="path48"
         style="fill:#aaaaaa;fill-opacity:1;fill-rule:nonzero;stroke:#aaaaaa;stroke-width:0.879928;stroke-linecap:butt;stroke-linejoin:round;stroke-miterlimit:10;stroke-dasharray:none;stroke-opacity:1"
         d="M 37.004967,71.599979 30.999999,55.10013 24.995029,71.599979 Z" /></g></g></svg>
